<svg width="300" height="300" xmlns="http://www.w3.org/2000/svg">

 <g>
  <title>background</title>
  <rect fill="none" id="canvas_background" height="302" width="302" y="-1" x="-1"/>
 </g>
 <g>
  <title>Layer 1</title>
  <ellipse stroke="#ffffff" ry="130" rx="130" id="svg_19" cy="150.00001" cx="150.00001" stroke-width="3" fill="#add9e6"/>
  <g stroke="null" id="svg_1">
   <path stroke="null" stroke-width="0" id="svg_2" fill="#adaca7" d="m159.64063,204.25789l-29.96535,10.67368l-1.13608,3.96705c-1.6133,5.64638 -7.74241,10.26453 -13.61867,10.26453l0,2.66842l62.14588,0l-17.42578,-27.57368z"/>
   <path stroke="null" stroke-width="0" id="svg_3" fill="#8f8f8b" d="m171.46081,218.89863l-4.18817,-14.64074l-17.27264,-10.67368l-17.27264,10.67368l-3.05209,10.67368l29.96535,0l1.13608,3.96705c1.6133,5.64638 7.74241,10.26453 13.61867,10.26453l5.34205,2.66842l5.34205,-2.66842c-5.87626,0 -12.00537,-4.61815 -13.61867,-10.26453z"/>
   <path stroke="null" stroke-width="0" id="svg_4" fill="#adaca7" d="m217.1318,204.25789l10.68411,0c5.87626,0 10.68411,-4.80316 10.68411,-10.67368l0,-21.34737l-21.36821,-21.34737l0,53.36842z"/>
   <path stroke="null" stroke-width="0" id="svg_5" fill="#cbc9c2" d="m61.5,193.58421c0,5.87053 4.80785,10.67368 10.68411,10.67368l144.94769,0c5.87626,0 10.68411,-4.80316 10.68411,-10.67368l0,-64.0421l-166.31591,42.69473l0,21.34737z"/>
   <path stroke="null" stroke-width="0" id="svg_6" fill="#404242" d="m227.81591,65.50001l-10.68411,0l10.68411,106.73684l10.68411,0l0,-96.06315c0,-5.87053 -4.80785,-10.67368 -10.68411,-10.67368z"/>
   <path stroke="null" stroke-width="0" id="svg_7" fill="#565959" d="m227.81591,76.17369c0,-5.87053 -4.80785,-10.67368 -10.68411,-10.67368l-144.94769,0c-5.87626,0 -10.68411,4.80315 -10.68411,10.67368l0,96.06315l166.31591,0l0,-10.67368l-77.8159,-42.69936l77.8159,-42.69011z"/>
   <path stroke="null" stroke-width="0" id="svg_8" fill="#87aab5" d="m227.81591,76.17191l-10.68197,-0.00747c0,0.00178 -67.13393,42.69936 -67.13393,42.69936s67.1325,42.69865 67.13179,42.69936c0,0 10.68375,-0.00712 10.68375,-0.00712c0.00036,0 -0.00071,-85.38271 0.00036,-85.38413z"/>
   <path stroke="null" stroke-width="0" id="svg_9" fill="#add9e6" d="m217.1318,76.17191l-144.91635,-0.00783c-0.00891,0.00427 -0.01639,85.3973 -0.03134,85.39908c0,0 144.94057,-0.00712 144.94413,-0.00712c0.00178,0 -0.0114,-85.38271 0.00356,-85.38413z"/>
   <circle stroke="null" stroke-width="0" id="svg_10" r="3.79707" fill="#fff" cy="188.24737" cx="150.00001"/>
   <path stroke="null" stroke-width="0" id="svg_11" fill="#8f8f8b" d="m205.20122,234.5l-110.40242,0c-1.47512,0 -2.67103,-1.19439 -2.67103,-2.66842s1.19591,-2.66842 2.67103,-2.66842l110.40242,0c1.47512,0 2.67103,1.19439 2.67103,2.66842s-1.19591,2.66842 -2.67103,2.66842z"/>
  </g>
  <path id="svg_20" d="m131.66667,27.1875" opacity="0.5" stroke-width="10" stroke="null" fill="#000000"/>
 </g>
</svg>